# xmcd
#
# Track frame offsets:
#	150
#	17587
#	35159
#	54364
#	72327
#	90400
#	103272
#	123958
#	141169
#	154564
#	168449
#	183273
#	199692
#	216275
#
# Disc length: 3007 seconds
#
# Revision: 1
# Processed by: cddbd v1.5.2PL0 Copyright (c) Steve Scherf et al.
# Submitted via: audiograbber 1.83.01
#
DISCID=be0bbd0e
DTITLE=Jamie Hood - Every Tear in Tennessee
DYEAR=1900
DGENRE=Country
TTITLE0=We Don't Know Any Better
TTITLE1=Butterfly
TTITLE2=Every Tear in Tennessee
TTITLE3=Maybe Tonight
TTITLE4=Lovin' You All Over Again
TTITLE5=Be Mine
TTITLE6=Have You Seen Her
TTITLE7=Second Chances
TTITLE8=If You So Much As Touch Me
TTITLE9=Stars In My Eyes
TTITLE10=Without You Here
TTITLE11=Smoky Mtn. Breakdown
TTITLE12=PawPaw's Fiddle
TTITLE13=Amazing Grace (sung in Cherokee/English)
EXTD=
EXTT0=
EXTT1=
EXTT2=
EXTT3=
EXTT4=
EXTT5=
EXTT6=
EXTT7=
EXTT8=
EXTT9=
EXTT10=
EXTT11=
EXTT12=
EXTT13=
PLAYORDER=
